<?xml version="1.0" standalone="no"?>
<!DOCTYPE svg PUBLIC "-//W3C//DTD SVG 20010904//EN"
 "http://www.w3.org/TR/2001/REC-SVG-20010904/DTD/svg10.dtd">
<svg version="1.0" xmlns="http://www.w3.org/2000/svg"
 width="352.000000pt" height="240.000000pt" viewBox="0 0 352.000000 240.000000"
 preserveAspectRatio="xMidYMid meet">

<g transform="translate(0.000000,240.000000) scale(0.100000,-0.100000)"
fill="#000000" stroke="none">
<path d="M990 2374 c-23 -22 -25 -32 -25 -104 1 -89 1 -90 -87 -90 -52 0 -106
16 -213 63 -76 33 -101 40 -215 64 -139 28 -277 -1 -340 -74 -80 -91 -120
-238 -89 -334 28 -91 107 -180 175 -201 24 -7 44 -15 44 -19 0 -4 -15 -14 -34
-23 -70 -33 -126 -137 -112 -209 10 -56 80 -113 181 -148 17 -6 16 -7 -7 -8
-69 -3 -72 -31 -3 -31 47 0 48 -1 61 -75 20 -119 93 -165 264 -168 169 -2 189
26 207 281 4 71 8 82 23 82 10 0 25 3 34 6 14 5 16 -6 16 -82 0 -48 5 -115 11
-148 23 -128 53 -148 209 -140 117 7 198 35 217 76 24 52 33 80 33 104 0 21 8
29 40 41 43 17 49 27 24 37 -18 7 -18 7 6 201 28 224 -39 436 -167 534 l-44
34 34 36 c47 49 67 92 67 144 0 59 -28 87 -66 66 -15 -7 -34 -28 -42 -46 -18
-38 -32 -43 -32 -10 -1 58 -84 168 -127 166 -10 0 -29 -11 -43 -25z m-103
-840 c3 -12 -2 -41 -10 -65 -14 -40 -18 -44 -48 -44 -31 0 -35 3 -44 40 -5 22
-13 45 -18 52 -4 7 8 33 33 65 22 29 40 60 40 68 1 15 38 -78 47 -116z m341
-1 c5 -10 15 -47 21 -83 7 -36 24 -91 38 -123 21 -46 25 -67 20 -108 -9 -73
-43 -135 -86 -156 -42 -20 -208 -24 -253 -5 -42 17 -60 93 -61 267 -2 168 3
181 56 141 28 -21 45 -26 93 -26 53 0 63 4 95 33 20 19 40 44 43 55 9 27 22
28 34 5z m-482 -68 c26 -64 13 -302 -22 -372 -15 -28 -22 -32 -80 -40 -79 -12
-190 1 -224 26 -33 24 -57 74 -65 140 -4 30 -9 59 -11 66 -5 12 114 48 151 46
102 -7 130 -5 130 9 0 10 -12 16 -32 18 -18 2 -33 6 -33 10 0 4 26 24 58 44
32 21 69 49 82 63 13 14 25 25 27 25 2 0 11 -16 19 -35z"/>
<path d="M1015 1350 c-12 -20 7 -30 60 -30 54 0 80 15 54 31 -19 12 -106 11
-114 -1z"/>
<path d="M1029 1223 c-78 -84 -73 -113 22 -113 57 0 84 12 53 24 -9 3 -29 6
-45 6 -33 0 -36 10 -13 45 8 13 14 33 12 45 -3 21 -4 20 -29 -7z"/>
<path d="M590 1231 c0 -10 9 -30 21 -45 25 -32 18 -46 -24 -46 -18 0 -39 -4
-47 -10 -23 -14 7 -22 76 -18 51 3 59 6 62 23 3 21 -40 85 -70 104 -15 9 -18
8 -18 -8z"/>
<path d="M2323 2367 c-18 -6 -33 -15 -33 -19 0 -4 -9 -8 -20 -8 -11 0 -20 -4
-20 -10 0 -5 -9 -10 -20 -10 -11 0 -20 -5 -20 -11 0 -13 -41 -48 -56 -49 -7 0
-26 -13 -44 -30 -18 -16 -36 -30 -41 -30 -4 0 -24 -16 -44 -36 -20 -19 -49
-40 -65 -46 -17 -5 -30 -16 -30 -22 0 -7 -12 -19 -27 -27 -16 -8 -30 -17 -33
-20 -11 -14 -90 -49 -110 -49 -11 0 -20 -4 -20 -10 0 -14 35 -30 64 -30 28 0
32 -13 16 -55 -11 -29 -54 -75 -70 -75 -5 0 -10 -4 -10 -10 0 -5 -8 -10 -17
-10 -50 -1 -53 -39 -7 -85 13 -13 24 -29 24 -35 0 -5 5 -10 11 -10 6 0 17 -7
26 -15 8 -9 28 -19 44 -22 16 -3 29 -9 29 -14 0 -5 9 -9 20 -9 11 0 20 -4 20
-10 0 -5 -4 -10 -9 -10 -9 0 -18 -40 -27 -122 -3 -27 -9 -48 -14 -48 -4 0 -11
-30 -14 -67 -3 -38 -11 -106 -16 -153 -6 -47 -13 -190 -16 -318 -5 -223 -5
-234 13 -230 15 3 18 15 21 71 2 37 7 67 12 67 6 0 10 -9 10 -20 0 -11 5 -20
10 -20 6 0 10 -25 10 -55 0 -30 5 -55 10 -55 6 0 10 -18 10 -40 0 -33 3 -40
20 -40 11 0 20 -4 20 -10 0 -5 25 -10 55 -10 l55 0 0 50 c0 28 5 50 10 50 6 0
10 -9 10 -20 0 -11 5 -20 10 -20 6 0 10 -13 10 -30 0 -16 5 -30 10 -30 6 0 10
-9 10 -20 0 -18 7 -20 65 -20 51 0 65 -3 65 -15 0 -12 17 -15 95 -15 l95 0 0
105 c0 63 -4 105 -10 105 -5 0 -10 7 -10 15 0 10 -11 15 -35 15 -19 0 -35 5
-35 10 0 6 -9 10 -20 10 -11 0 -20 5 -20 10 0 6 -8 10 -18 10 -10 0 -24 9 -32
20 -8 11 -21 20 -30 20 -9 0 -22 9 -30 20 -8 11 -18 20 -23 20 -16 0 -57 50
-57 70 0 11 -4 20 -10 20 -5 0 -10 9 -10 20 0 11 -4 20 -10 20 -5 0 -10 9 -10
20 0 11 -4 20 -10 20 -5 0 -10 9 -10 20 0 17 -7 20 -40 20 -30 0 -47 7 -65 25
-14 13 -25 29 -25 35 0 5 -4 10 -10 10 -5 0 -10 9 -10 20 0 11 -4 20 -10 20
-5 0 -10 23 -10 50 0 28 5 50 10 50 6 0 10 9 10 20 0 31 44 70 80 70 29 0 30
1 30 50 0 43 3 50 20 50 11 0 20 -4 20 -10 0 -6 35 -10 85 -10 50 0 85 4 85
10 0 6 18 10 40 10 22 0 40 5 40 10 0 6 9 10 20 10 11 0 20 5 20 10 0 6 11 10
25 10 16 0 25 6 25 15 0 8 8 15 18 15 10 0 24 9 32 20 8 11 21 20 28 20 7 0
31 18 52 40 21 22 41 40 45 40 10 0 55 48 55 60 0 5 5 10 10 10 6 0 10 -25 10
-55 0 -43 3 -55 15 -55 23 0 105 86 105 110 0 11 7 20 15 20 8 0 15 9 15 20 0
11 5 20 10 20 6 0 10 14 10 30 0 17 5 30 10 30 6 0 10 9 10 20 0 11 5 20 10
20 6 0 10 -13 10 -30 0 -16 5 -30 10 -30 6 0 10 -9 10 -20 0 -11 5 -20 10 -20
6 0 10 -13 10 -30 0 -16 5 -30 10 -30 6 0 10 -7 10 -15 0 -8 5 -15 10 -15 6 0
10 -9 10 -20 0 -11 5 -20 10 -20 6 0 10 -9 10 -20 0 -11 5 -20 10 -20 11 0
100 -85 100 -95 0 -13 70 -75 85 -75 8 0 15 -4 15 -10 0 -5 9 -10 21 -10 24 0
49 -22 49 -44 0 -9 8 -16 20 -16 11 0 20 -4 20 -10 0 -5 9 -10 20 -10 15 0 20
-7 20 -25 0 -14 4 -25 10 -25 10 0 7 29 -11 100 -6 25 -13 66 -16 93 -3 26 -9
47 -13 47 -4 0 -10 15 -13 33 -4 17 -11 57 -17 87 -6 30 -13 85 -17 123 -3 37
-9 67 -14 67 -5 0 -9 20 -9 45 0 25 -4 45 -10 45 -5 0 -10 14 -10 30 0 19 -5
30 -14 30 -7 0 -19 14 -26 30 -7 17 -16 30 -21 30 -4 0 -13 16 -20 35 -7 19
-20 37 -28 40 -9 3 -33 21 -53 40 -20 19 -46 35 -57 35 -12 0 -21 3 -21 8 0
10 -73 32 -108 32 -16 0 -34 8 -42 20 -8 11 -18 20 -23 20 -11 0 -37 26 -37
38 0 5 -13 15 -30 22 -16 7 -30 15 -30 19 0 28 -273 42 -347 18z"/>
<path d="M2820 1435 c0 -20 65 -85 85 -85 8 0 15 7 15 16 0 19 -24 44 -42 44
-8 0 -20 9 -28 20 -17 24 -30 26 -30 5z"/>
<path d="M2303 1395 c-37 -39 -40 -45 -17 -45 9 0 29 14 44 30 15 17 33 30 39
30 6 0 11 5 11 10 0 22 -47 7 -77 -25z"/>
<path d="M2413 1355 c-7 -8 -13 -21 -13 -30 0 -9 -9 -15 -25 -15 -16 0 -25 -6
-25 -15 0 -8 -4 -15 -10 -15 -5 0 -10 -4 -10 -10 0 -5 14 -10 31 -10 30 0 59
19 59 39 0 6 5 11 10 11 6 0 10 14 10 30 0 33 -8 37 -27 15z"/>
<path d="M2780 1340 c0 -16 5 -30 10 -30 6 0 10 -5 10 -11 0 -19 28 -39 54
-39 14 0 26 5 26 10 0 6 -4 10 -10 10 -5 0 -10 5 -10 10 0 11 -65 80 -75 80
-3 0 -5 -13 -5 -30z"/>
<path d="M3320 1213 c0 -29 -4 -53 -10 -53 -5 0 -10 -14 -10 -30 0 -43 -39
-80 -85 -80 -19 0 -35 -4 -35 -10 0 -5 -7 -10 -15 -10 -10 0 -15 -10 -15 -30
0 -16 -4 -30 -10 -30 -5 0 -10 -8 -10 -18 0 -10 -9 -24 -20 -32 -11 -8 -20
-19 -20 -25 0 -6 -9 -17 -20 -25 -11 -8 -20 -22 -20 -32 0 -11 -7 -18 -18 -18
-10 0 -24 -9 -32 -20 -8 -11 -25 -20 -37 -20 -13 0 -23 -4 -23 -10 0 -5 -9
-10 -20 -10 -11 0 -20 -4 -20 -10 0 -5 -9 -10 -20 -10 -18 0 -20 -7 -20 -85 0
-50 4 -85 10 -85 6 0 10 -13 10 -30 0 -23 4 -30 20 -30 11 0 20 5 20 10 0 6
15 10 33 10 40 0 57 15 57 52 0 15 3 28 6 28 11 0 34 -29 34 -44 0 -9 5 -16
10 -16 6 0 10 -6 10 -14 0 -16 71 -28 81 -14 3 5 14 8 25 7 62 -6 64 -4 64 70
0 46 -4 71 -12 74 -7 2 -10 8 -6 12 12 12 38 -22 38 -49 0 -14 4 -26 9 -26 5
0 11 -12 14 -27 12 -53 20 -58 73 -43 58 17 97 48 88 70 -4 8 -11 49 -15 90
-17 152 -28 236 -39 290 -6 30 -14 79 -19 109 -4 30 -13 57 -19 59 -7 2 -12
20 -12 40 0 21 -5 44 -10 52 -7 11 -10 0 -10 -37z"/>
<path d="M2590 1080 c0 -5 23 -10 50 -10 28 0 50 5 50 10 0 6 -22 10 -50 10
-27 0 -50 -4 -50 -10z"/>
<path d="M2501 1044 c-12 -14 -20 -28 -17 -31 3 -4 14 4 25 15 10 12 28 22 40
22 11 0 21 5 21 10 0 19 -45 9 -69 -16z"/>
<path d="M2710 1064 c0 -10 31 -36 37 -31 3 3 -2 13 -10 22 -16 15 -27 19 -27
9z"/>
<path d="M643 968 c-26 -13 -47 -59 -39 -86 4 -11 17 -31 29 -45 36 -41 96
-64 83 -32 -3 10 1 15 12 15 10 0 23 5 29 11 17 17 155 17 186 0 21 -11 24
-17 16 -28 -16 -19 6 -17 41 4 36 21 73 86 65 113 -10 31 -46 60 -75 60 -14 0
-50 -9 -80 -20 -30 -11 -64 -20 -76 -20 -11 0 -47 9 -79 20 -65 22 -80 23
-112 8z"/>
<path d="M2876 405 c-14 -14 -32 -25 -41 -25 -8 0 -15 -4 -15 -10 0 -5 -9 -10
-20 -10 -11 0 -20 -4 -20 -10 0 -5 -11 -10 -25 -10 -14 0 -25 -4 -25 -10 0 -6
-33 -10 -80 -10 -47 0 -80 4 -80 10 0 6 -11 10 -25 10 -14 0 -25 5 -25 10 0 6
-8 10 -18 10 -10 0 -24 9 -32 20 -8 11 -22 20 -32 20 -10 0 -18 4 -18 10 0 25
-256 -92 -308 -141 -17 -16 -34 -29 -37 -29 -13 0 -155 -135 -155 -148 0 -7
-16 -30 -35 -50 l-35 -37 410 -3 c226 -1 595 -1 822 0 385 3 411 4 395 20 -9
9 -17 22 -17 28 0 11 -231 242 -267 267 -41 29 -163 83 -209 93 -27 6 -56 13
-66 16 -9 3 -27 -6 -42 -21z"/>
<path d="M1118 373 c7 -3 16 -2 19 1 4 3 -2 6 -13 5 -11 0 -14 -3 -6 -6z"/>
<path d="M601 361 c-10 -7 1 -20 45 -55 115 -91 227 -109 338 -57 70 34 122
82 113 105 -8 20 -21 20 -41 1 -8 -8 -19 -15 -25 -15 -6 0 -11 -4 -11 -9 0 -5
-10 -11 -22 -13 -18 -2 -24 -11 -26 -35 -4 -39 -22 -44 -22 -7 0 21 -3 25 -17
19 -10 -4 -39 -10 -66 -12 -55 -6 -155 25 -200 63 -31 26 -44 29 -66 15z m154
-90 c3 -5 1 -12 -5 -16 -5 -3 -10 1 -10 9 0 18 6 21 15 7z m132 -23 c-3 -8 -6
-5 -6 6 -1 11 2 17 5 13 3 -3 4 -12 1 -19z m-60 -10 c-3 -8 -6 -5 -6 6 -1 11
2 17 5 13 3 -3 4 -12 1 -19z"/>
</g>
</svg>
